# xmcd CD database file generated by Grip 2.95
# 
# Track frame offsets:
#       150
#       14396
#       24934
#       42959
#       52504
#       64061
#       76290
#       82859
#       100932
#       115228
#       123526
#       137355
#       154546
#       166671
#       182944
#       193023
#       208772
#       223192
#       230850
#       240388
#       254627
#       268870
#       280931
#       290349
# 
# Disc length: 4100 seconds
# 
# Revision: 3
# Processed by: cddbd v1.4b41PL1 Copyright (c) Steve Scherf et al.
# Submitted via: Grip 2.95
# 
DISCID=4e100218
DTITLE=Mance Lipscomb - "Captain Captain"
DYEAR=1900
DGENRE=
TTITLE0=Captain, Captain!
TTITLE1=Ain't You Sorry
TTITLE2=Night Time is the Right Time
TTITLE3=Mr. Tom's Rag
TTITLE4=I Want to Do Something for You
TTITLE5=Long Tall Girl Got Stuck on Me
TTITLE6=Rag in "A"
TTITLE7=Goin' up North to See My Pony Run
TTITLE8=Santa Fe Blues
TTITLE9=Frankie and Albert
TTITLE10=Sentimental Piece in "G"
TTITLE11=Farewell Blues
TTITLE12=Shorty George
TTITLE13=Angel Child
TTITLE14=Black Rat
TTITLE15=Tom Moore's Farm - take 2
TTITLE16=Foggy Bottom Blues
TTITLE17=Heel and Toe Polka
TTITLE18=Going Back to Georgia
TTITLE19=Easy Rider Blues
TTITLE20=Why did You Leave Me?
TTITLE21=Me and My Baby
TTITLE22=Mance's Talking Blues
TTITLE23=Segregation Done Past
EXTD=
EXTT0=
EXTT1=
EXTT2=
EXTT3=
EXTT4=
EXTT5=
EXTT6=
EXTT7=
EXTT8=
EXTT9=
EXTT10=
EXTT11=
EXTT12=
EXTT13=
EXTT14=
EXTT15=
EXTT16=
EXTT17=
EXTT18=
EXTT19=
EXTT20=
EXTT21=
EXTT22=
EXTT23=
PLAYORDER=
